# xmcd
#
# Track frame offsets:
# 150
# 12687
# 22590
# 34235
# 43882
# 52125
# 62790
# 73827
# 83760
# 96927
# 109095
# 121602
#
# Disc length: 1762 seconds
#
#
# Revision: 0
# Processed by: cddbd v1.4PL0 Copyright (c) Steve Scherf et al.
# Submitted via: FreeRIP 2.51 
#
DISCID=a106e00c
DTITLE=Gerson Filho - Quadrilha Brasileira
DYEAR=1999
DGENRE=Country
TTITLE0=Gerson Filho - Quadrilha do cabo
TTITLE1=Gerson Filho - Sanfona do Barbino
TTITLE2=Gerson Filho - Tradição de Penedo
TTITLE3=Gerson Filho - Vadeia Gente
TTITLE4=Gerson Filho - Quadrilha das Crianças
TTITLE5=Gerson Filho - Ou vai ou Racha
TTITLE6=Gerson Filho - Quadrilha Brasileira
TTITLE7=Gerson Filho - Dança do Arara
TTITLE8=Gerson Filho - Varandão da Fazenda
TTITLE9=Gerson Filho - Meu Sertão Meu Sertãozinho
TTITLE10=Gerson Filho - Aguenta o Banzeiro
TTITLE11=Gerson Filho - Fim de baile
EXTD=
EXTT0=
EXTT1=
EXTT2=
EXTT3=
EXTT4=
EXTT5=
EXTT6=
EXTT7=
EXTT8=
EXTT9=
EXTT10=
EXTT11=
PLAYORDER=
